<svg xmlns="http://www.w3.org/2000/svg" fill="none" viewBox="0 0 365 364"><path d="m301.5 157.7-38.8 22.6a7.9 7.9 0 0 1-7.9 0l-37.7-21.8a2.6 2.6 0 0 1 0-4.6l38.8-22.5a7.9 7.9 0 0 1 7.9 0l37.7 21.8c1.7 1 1.7 3.5 0 4.5Zm-162.9-1.4L100 178.8a7.9 7.9 0 0 1-7.9 0l-37.7-21.7a2.6 2.6 0 0 1 0-4.6L93.1 130a7.9 7.9 0 0 1 7.9 0l37.6 21.8c1.8 1 1.8 3.5 0 4.5Zm92.5 45.5L179.3 232a10.6 10.6 0 0 1-10.6 0l-50.5-29.2a3.5 3.5 0 0 1 0-6l52-30.2c3.2-2 7.2-2 10.5 0l50.4 29a3.5 3.5 0 0 1 0 6.2Zm72.6 57.5L242 295a7.9 7.9 0 0 1-7.9 0l-37.7-21.7a2.6 2.6 0 0 1 0-4.6l61.8-35.7a7.9 7.9 0 0 1 7.8 0l37.7 21.8c1.8 1 1.8 3.5 0 4.5Z" fill="#E5ECF2"/><path d="m135.2 253.6-38.8 22.6a7.9 7.9 0 0 1-7.9 0l-37.7-21.8a2.6 2.6 0 0 1 0-4.6l38.8-22.5a7.9 7.9 0 0 1 7.9 0l37.7 21.8c1.7 1 1.7 3.5 0 4.5Z" fill="#E5F2E5"/><path d="m222 145.7 34-19.7a7.9 7.9 0 0 1 7.9 0l36 20.8 3-.6v3.8c0 1-.5 1.8-1.3 2.3l-38.8 22.5a7.9 7.9 0 0 1-7.9 0l-37.7-21.7a2.6 2.6 0 0 1-1.3-2.3v-3.9l6.2-1.2Z" fill="#20AE65"/><path d="M301.5 148.4 262.7 171a7.9 7.9 0 0 1-7.9 0l-37.7-21.8a2.6 2.6 0 0 1 0-4.6l38.8-22.5a7.9 7.9 0 0 1 7.9 0l37.7 21.8c1.7 1 1.7 3.5 0 4.5Z" fill="#D1FFE8"/><path d="m282.8 150 14.7-8.4-24.2-14-14.7 8.4 24.2 14Z" fill="url(#a)" opacity=".1"/><path d="M279.7 135.3s.4 1.3-.6 1.7c-1 .4-3.7 2.8-5.6 3-1.9.2-1.7-1-1.2-2.1.5-1 2.6-3.8 2.6-3.8l4.8 1.2Zm5.2 3.3s.4 1.4-.6 1.8c-1 .4-3.6 2.7-5.5 2.9-2 .2-1.8-1-1.3-2 .6-1.1 2.6-3.9 2.6-3.9l4.8 1.2Z" fill="#2D527B"/><path d="m285.4 124.5-.2 14s-1.2.8-3 .4a5.4 5.4 0 0 1-2.6-1.3v-2.2s-1.2.3-2.8.2c-1.7-.2-2.5-.8-2.5-.8l-.2-13.2 11.3 2.9Z" fill="#CEDFED"/><path d="m278.6 124 1 .2v11.2l-1 .2v-11.7Zm-4-29.3-1.3 6.6-5.1-1-.6 4.5s6.1 1.7 7 1c.8-.6 0-11.1 0-11.1Z" fill="#CEDFED"/><path d="M278 91.1s-2.6 0-3.2 2.3c-.7 2.1-.6 14.7-.6 16.6l-.4 11.5s.1 1.2 3.5 2.7c3.4 1.5 9.4 0 9.4 0s0-8.7-.4-15.1c-.3-6.4 0-12.5-1-14.5-1.2-2-4.4-3.3-7.2-3.5Z" fill="#E5ECF2"/><path d="M282.9 87.2v5.3l-3.7 3.8-1-.2.3-4.5 4.4-4.4Z" fill="#CD8B74"/><path d="m287.4 115.2-4-.4s.6-4.5.3-8.8c-.4-4.4-1.8-7.5-1.2-10.4.7-3 3-2.2 3.7.8.8 3 1.7 16.9 1.2 18.8Z" fill="#CEDFED"/><path d="M283.3 114.8s-.7 1.9-.6 2.4c.1.5 1.1-.5 1.1-.5s-.8 2.2-.5 3c.2.7 2.5 1.5 3.4.3.9-1.1.7-4.8.7-4.8l-4-.4Zm-15.1-14.4s-1.3-.5-2.6-.7c-1.2-.3-2.2.5-2.4 1.3-.1.8 1.5 0 1.5 0s-.3 1 0 2.2c.3 1 2.9 1.6 2.9 1.6l.6-4.4Z" fill="#E69C83"/><path d="m278 124.5-.6-.3 1-28h.4l-.7 28.3Zm.4-28.4-1.1 1 1.2-5.4V96Zm4.5-3.7-3 5-1.1-1.2 4-3.8Z" fill="#CEDFED"/><path d="M282.4 88.3s-.5 1.9-1.8 2.8c-1.4 1-2.5 1.3-3.5.9-1-.5-1.6-1.3-1.5-3.3.2-2-.4-5.1 1-7.2 0 0 1.4-2 4.5-1 3 1 2.4 5.2 1.3 7.8Z" fill="#E69C83"/><path d="M275.7 84.5s-.5 0-.3-1.3.9-2 1.7-2.6a5 5 0 0 1 4.4-.2c1.5.7 2.3 1.8 2.4 3.5.2 1.6 0 2-.6 2.7-.6.7-1.5.9-1.5.9s.3-1-.3-1.4c-.6-.5-1.2 0-1.3-1.5 0-1.4 1-3 .6-3.7-.3-.8-2.6-.7-3.2 0-.6.6-1.7 1.6-2 3.6Z" fill="#E5ECF2"/><path d="M275.6 88s.2-.1 1 .2c.7.4 2.5 1 2.7 1.3l.4.7s.8-.4 1.5-1.3c.6-1 .6-1.4.6-1.4l1.5-1.1s-.7 3.5-2 4.6c-1.4 1-2.4 1.7-3.7 1.6-1.2-.1-2-1-2.3-1.8-.2-.7.3-2.8.3-2.8Z" fill="#E5ECF2"/><path d="M277.5 86.8c0 .7.5 1.5 1 1.8.5.4 1 0 1-.7s-.5-1.5-1-1.8c-.5-.3-1 0-1 .7Zm-2.4-1.4c0 .7.4 1.5 1 1.8.5.3 1 0 1-.7s-.5-1.5-1-1.8c-.6-.3-1 0-1 .7Z" fill="#F7F1E3" opacity=".5"/><path d="m282.4 114.5-2.7-1.6v3.4c0 .8.4 1.5 1 2a1 1 0 0 0 1.7-1v-2.8Zm-5.5-3.2-2.7-1.5v3.4c0 .7.5 1.5 1.1 1.9a1 1 0 0 0 1.6-1v-2.8Z" fill="#CEDFED"/><path d="m282.8 122-23.5 13.6-24.2-14 23.5-13.5 24.2 13.9Z" fill="#D1FFE8"/><path d="M282.8 122v28l-23.5 13.5v-28l23.5-13.5Z" fill="#20AE65"/><path d="m259.3 163.5-24.2-14v-27.9l24.2 14v28Z" fill="#5BEEA3"/><path d="M250.4 125.3c5.2 3 13 3.4 17.6.8 4.5-2.6 4-7.2-1.3-10.2-5.2-3-13-3.3-17.6-.7-4.5 2.6-4 7.1 1.3 10.1Z" fill="#099F0F" opacity=".2"/><path d="M253 123.9c3.5 2 9 2.2 12 .5 3-1.8 2.7-5-.9-7-3.5-2-9-2.3-12-.5-3.1 1.8-2.7 4.9.9 7Z" fill="#099F0F" opacity=".5"/><path d="M246 119.4V39.3l25 2.6v79.5c.2 1.7-.8 3.4-3 4.7-4.5 2.6-12.4 2.3-17.6-.8-3-1.7-4.4-3.9-4.3-6Z" fill="url(#b)" opacity=".5"/><path d="M250 51.4c0-1 .7-2.1 2-2.9 3.2-1.8 8.6-1.6 12.1.5 2.1 1.2 3.1 2.8 3 4.2V121c0 1.2-.6 2.4-2 3.3a14 14 0 0 1-12.1-.5c-2-1.2-3-2.6-3-4V51.4Z" fill="url(#c)" opacity=".5"/><path d="M254 80.9c0-.6.4-1.2 1-1.6 1.7-1 4.6-.9 6.5.2 1.2.7 1.7 1.5 1.6 2.3v36.4c0 .6-.3 1.3-1 1.8-1.7 1-4.6.8-6.6-.3-1-.6-1.5-1.4-1.5-2.1V80.9Z" fill="url(#d)" opacity=".5"/><path d="M253 86.8c3.5 2 9 2.3 12 .5 3-1.8 2.7-5-.9-7-3.5-2-9-2.2-12-.5-3 1.8-2.7 5 .9 7Zm0 13c3.5 2 9 2.3 12 .5 3-1.8 2.7-4.9-.9-7-3.5-2-9-2.2-12-.4-3 1.8-2.7 4.9.9 7Zm0 12.9c3.5 2 9 2.3 12 .5 3-1.8 2.7-5-.9-7-3.5-2-9-2.3-12-.5-3 1.8-2.7 5 .9 7Z" stroke="#099F0F" stroke-miterlimit="10" stroke-width=".5" opacity=".5"/><path d="m59.2 144.3 33.9-19.7a7.9 7.9 0 0 1 7.9 0l36 20.7 3-.6v3.9c0 .9-.5 1.8-1.4 2.3L100 173.4a7.9 7.9 0 0 1-8 0l-37.6-21.8a2.6 2.6 0 0 1-1.3-2.2v-3.9l6.2-1.3Z" fill="#20AE65"/><path d="M138.6 147 100 169.5a7.9 7.9 0 0 1-7.9 0l-37.7-21.7a2.6 2.6 0 0 1 0-4.6l38.8-22.5a7.9 7.9 0 0 1 7.9 0l37.6 21.8c1.8 1 1.8 3.5 0 4.5Z" fill="#D1FFE8"/><path d="m74.2 149.1-15.3-8.6L82.4 127l15.3 8.6-23.5 13.6Z" fill="url(#e)" opacity=".1"/><path d="M82.4 92.3s6.5 7.3 6.4 9.5c-.2 2.2-2.3 2.2-2.3 2.2l-3.1-1-1-10.7Z" fill="#CEDFED"/><path d="M82.8 86.6s1-.4 1-1.5c0-1-.7-1.5-.7-1.5s0-.6-.3-1c-.3-.6-1-.7-1-.7s0-.8-.7-1c-.7-.4-1.5 0-1.5 0s-.7-1-1.6-1c-1 .2-1.3 1-1.3 1s-1.2 0-1.8.7c-.6.6-.6 1.5-.6 1.5s-1 .2-1 1c0 1 .2 1.5.2 1.5s-.4.4-.3 1.4c0 1 .8 1.5.8 1.5s-.2.2 0 .5l.3.4s-.6-.1-1.1.5c-.5.6-.5 1.5-.5 1.5s-.8.7-.9 1.3V94s-.4.6-.2 1.5c0 1 1 1.4 1 1.4l6.5-6.2 3.7-4Zm-3.4 46.5s2.5 2.5 2.2 3.6c-.2 1.1-2.2.9-3.6-.6-1.5-1.5-1.5-1.6-1.5-2.4 0-.7.9-1.2.9-1.2l2 .6Z" fill="#2D527B"/><path d="m75.7 121.9-.4 3.7a46 46 0 0 0 1.6 7.3c0 .3.3.6.7.7.3 0 .7.2 1 .1.3 0 .8-.6.8-.6l.3-11.7-4 .5Z" fill="#805749"/><path d="M83.8 131.3s2.4 2.5 2.2 3.6c-.2 1-2.2.9-3.7-.7-1.4-1.5-1.4-1.6-1.4-2.3 0-.8.9-1.3.9-1.3l2 .7Z" fill="#2D527B"/><path d="m80 120-.3 3.8c0 1.3 1.1 5.7 1.6 7.2 0 .4.3.6.7.7l.9.2c.4-.1.9-.6.9-.6l.3-11.8-4 .5Z" fill="#805749"/><path d="m84.5 112.2-.3 7.3s-.8 1.6-3.3 2.3c-2.4.7-6.5.3-6.5.3s-1.3-7-1.3-8.7c0-1.6 11-3.5 11.4-1.2Z" fill="#CEDFED"/><path d="M81 91s1.3.5 1.8 1.6c.6 1 1 4.5 1.3 5.8.3 1.2-.7 3.1-.7 4.5 0 1.5 1.6 8.2 1.6 8.7s-1.8 1.5-2.6 2c-.7.4-1.7-1.2-1.7-1.2s-.5 3.3-2.5 3.7c-2 .4-6.2-2.4-6.2-2.4s.3-3.8.8-5.6l1-3.4L72 95s1.9-2.3 5-3c3-.6 4-1 4-1Z" fill="#E5ECF2"/><path d="m80 91.5-.3 1.9v1.1l-3.2-2 .2-3.7 3.3 2.7Z" fill="#67463A"/><path d="M82.8 85.9s.2 3.4-.5 4.3c-.7 1-1.1 2-2 2-1 0-2.8-1.3-3.3-2.2-.6-1-.2-1.7 0-2.4.3-.6 1.7-2.6 3.4-2.9 1.5-.2 2.4.2 2.4 1.2Z" fill="#805749"/><path d="m79.9 109.6 6-2c.3-.2.5-.4.5-.7l2.3-10c0-.4 0-.5-.3-.4l-6 2c-.2 0-.4.4-.5.6l-2.3 10.1c0 .3 0 .4.3.4Z" fill="#B37C2E"/><path d="m83.6 98.9 3.3-1.1.3-1.4-3.3 1-.3 1.5Z" fill="#D1FFE8"/><path d="M72 95.1s-1 1-.5 3.5 2.7 9.5 4.1 10c1.5.5 6.3-1.4 6.3-1.4l-.4-2.8-4 1S75.1 97 74 95.7c-1.3-1.3-2-.7-2-.7Z" fill="#CEDFED"/><path d="M81.5 104.4s.6-1.1 1-1c.5 0 0 .9 0 .9s1.2-.7 1.8-.4c.6.3.7 1.7-.7 2.6l-1.7.7-.4-2.8Z" fill="#805749"/><path d="m81.8 88.3 1-.6c.2 0 .3-.2.3-.3v-.6c0-.4-.3-.5-.6-.4l-1 .6c-.2 0-.3.2-.3.4v.6c0 .3.4.5.6.3Zm-2.3 1.4 1-.6.2-.4v-.6c0-.3-.3-.5-.6-.3l-1 .6c-.2 0-.2.2-.2.3v.6c0 .3.3.5.6.4Z" fill="#F7F1E3" opacity=".5"/><path d="m121.8 121.5-23.5 13.6-24.1-14 23.5-13.5 24.1 14Z" fill="#D1FFE8"/><path d="M121.8 121.5v28l-23.5 13.6v-28l23.5-13.6Z" fill="#5BEEA3"/><path d="m98.3 163-24.1-13.9v-28l24.1 14v28Z" fill="#20AE65"/><path d="M89.4 124.9c5.2 3 13 3.3 17.6.7 4.5-2.6 4-7.2-1.2-10.2-5.3-3-13.2-3.3-17.7-.7-4.5 2.6-4 7.2 1.3 10.2Z" fill="#FFD562" opacity=".2"/><path d="M92 123.4c3.5 2 9 2.3 12 .5 3.1-1.8 2.7-5-.8-7-3.6-2-9-2.3-12-.5-3.2 1.8-2.8 5 .8 7Z" fill="#FFD562" opacity=".5"/><path d="M85 119V38.7l25 2.6v79.5c.2 1.8-.8 3.5-3 4.7-4.5 2.6-12.4 2.3-17.6-.7-3-1.7-4.4-4-4.3-6Z" fill="url(#f)" opacity=".5"/><path d="M89 51c0-1.1.7-2.2 2.1-3 3.1-1.7 8.5-1.5 12 .5 2.1 1.2 3.1 2.8 3 4.2v68c.1 1.1-.6 2.3-2 3.2-3.2 1.8-8.6 1.5-12.1-.5-2-1.1-3-2.6-3-4V51Z" fill="url(#g)" opacity=".5"/><path d="M93 80.4c0-.6.4-1.2 1.1-1.6 1.7-1 4.6-.8 6.5.3 1 .6 1.6 1.5 1.5 2.2v36.4c.1.7-.3 1.3-1 1.8-1.7 1-4.6.8-6.5-.3-1-.6-1.6-1.4-1.6-2.1V80.4Z" fill="url(#h)" opacity=".5"/><path d="M92 86.3c3.5 2 9 2.3 12 .5 3.1-1.8 2.7-4.9-.8-7-3.6-2-9-2.2-12-.4-3.2 1.8-2.8 4.9.8 7Zm0 13c3.5 2.1 9 2.4 12 .6 3.1-1.8 2.7-5-.8-7-3.6-2-9-2.3-12-.5-3.2 1.8-2.8 5 .8 7Zm0 13c3.5 2 9 2.2 12 .4 3.1-1.8 2.7-4.9-.8-7-3.6-2-9-2.2-12-.4-3.2 1.7-2.8 4.8.8 7Z" stroke="#FFD562" stroke-miterlimit="10" stroke-width=".5" opacity=".5"/><path d="M121.3 138.2a2.3 2.3 0 0 0 1.1-4.2l-3.5-2.1a2.3 2.3 0 0 0-2.3 4l3.6 2c.3.2.7.3 1 .3Zm-11.5 7a2.3 2.3 0 0 0 1.2-4.2l-3.6-2a2.3 2.3 0 0 0-2.3 3.9l3.6 2c.4.2.7.3 1.1.3Z" fill="#2D527B"/><path d="M121.9 136.3v17.3l48.7 28.3" stroke="#099F0F" stroke-linecap="round" stroke-linejoin="round" stroke-miterlimit="10" stroke-width="2.5"/><path d="M110.4 143.4v17.2l58.8 34.2" stroke="#FFD562" stroke-linecap="round" stroke-linejoin="round" stroke-miterlimit="10" stroke-width="2.5"/><path d="M236.2 141.3c.4 0 .8 0 1.2-.3l3.5-2a2.3 2.3 0 0 0-2.2-4l-3.6 2.1a2.3 2.3 0 0 0 1.1 4.2Zm11.5 7c.4 0 .8 0 1.1-.2l3.6-2a2.3 2.3 0 0 0-2.3-4l-3.5 2a2.3 2.3 0 0 0 1 4.3Z" fill="#2D527B"/><path d="M235.6 139.5v17.2L187 185" stroke="#FFD562" stroke-linecap="round" stroke-linejoin="round" stroke-miterlimit="10" stroke-width="2.5"/><path d="M247 146.5v17.3L188.4 198" stroke="#59A3F5" stroke-linecap="round" stroke-linejoin="round" stroke-miterlimit="10" stroke-width="2.5"/><path d="m124.8 188.8 45.3-26.4c3.3-1.9 7.3-1.9 10.6 0l48.2 27.9 4-.8v5.1c0 1.2-.6 2.4-1.8 3l-51.8 30.2a10.6 10.6 0 0 1-10.6 0l-50.5-29.1a3.5 3.5 0 0 1-1.7-3v-5.2l8.3-1.7Z" fill="#20AE65"/><path d="m231.2 192.5-52 30.2a10.6 10.6 0 0 1-10.5 0l-50.5-29.2a3.5 3.5 0 0 1 0-6l52-30.2c3.2-2 7.2-2 10.5 0l50.5 29a3.5 3.5 0 0 1 0 6.2Z" fill="#D1FFE8"/><path d="m187.3 218-12.6-7 36.5-21.2 12.6 7-36.5 21.2Z" fill="url(#i)" opacity=".1"/><path d="m211.2 146.4-36.5 21-37.6-21.6 36.6-21.1 37.5 21.7Z" fill="#D1FFE8"/><path d="M211.2 146.4v43.5l-36.5 21v-43.4l36.5-21.1Z" fill="#20AE65"/><path d="M174.7 211 137 189.3v-43.5l37.6 21.7V211Z" fill="#5BEEA3"/><path d="M179 172.8V185l29.4-17v-12L179 173Z" fill="#2D527B"/><path d="m182 176 1.9-1.1v-1.1l-2 1v1.2Zm9.7-6.7v1l1.8-1v-1.1l-1.8 1Zm-5.1 4 .8-.5v-2.5l-.8.5v2.5Zm2.8-5-.6 1 .7.6-.7 1.4.6.4 1.3-2.5-1.3-1Zm-4.7 6.1 1-.5v-1.2l-1 .6v1.1Zm2.2 4.3 1.9-1v-1.2l-1.9 1v1.2Zm-5 3 .8-.6v-2.4l-.8.5v2.4Zm9-7.8-.9.5v2.5l.9-.5 1-.6v-1l-1 .5v-1.4Zm-6.3 2.6-.6 1.2.7.5-.7 1.4.6.4 1.3-2.5-1.3-1Zm8.1-2.3v1.2l1-.6v-1.1l-1 .5Zm2.7-6 2-1v-1.1l-2 1v1.2Zm9.7-6.6v1.1l1.9-1v-1.2l-1.9 1Zm-5 4 .8-.5v-2.4l-.9.5v2.4Zm2.7-5-.6 1 .7.6-.7 1.4.6.4 1.3-2.5-1.3-1Zm-4.6 6.1.9-.5V165l-1 .5v1.1Zm2.2 4.3 1.8-1v-1.2l-1.8 1v1.2Zm-5 3 .8-.5V171l-.9.5v2.4Zm9-7.7-1 .5v2.4l1-.5 1-.5V167l-1 .6v-1.3Zm-6.3 2.5-.6 1.2.7.5-.7 1.4.6.5 1.3-2.6-1.3-1Zm8-2.3v1.2l1-.6V166l-1 .5Z" fill="#52F894"/><path d="M204.2 186a2.3 2.3 0 0 0 1.1-4.2l-3.5-2a2.3 2.3 0 1 0-2.3 3.9l3.6 2c.3.2.7.3 1.1.3Zm-11.4 7a2.3 2.3 0 0 0 1-4.2l-3.5-2a2.3 2.3 0 1 0-2.2 4l3.5 2 1.2.3Z" fill="#2D527B"/><path d="M232 90.6V180c0 1.7-1.9 2.7-3.3 1.9l-105.3-60.8a7 7 0 0 1-3.4-6V25.8c0-1.7 1.8-2.8 3.3-2l105.2 60.8a7 7 0 0 1 3.4 6Z" fill="url(#j)" opacity=".8"/><path d="M232 180V90.7a7 7 0 0 0-3.5-6L123.3 24c-.7-.4-1.5-.4-2.1-.1l3.5-2a2 2 0 0 1 2.2 0l105.3 60.7a7 7 0 0 1 3.4 6V178c0 .9-.5 1.6-1.3 2l-3.3 1.9c.6-.4 1-1 1-1.8Z" fill="#59F5C6" opacity=".5"/><path d="M144.8 123.5c4.8 0 8-4.3 8-11 0-8.6-5.3-18.7-11.9-22.5a10 10 0 0 0-5-1.5c-4.8 0-8 4.3-8 11 0 8.7 5.3 18.7 11.9 22.5a10 10 0 0 0 5 1.5Zm-9-32.6a8 8 0 0 1 4 1.2c5.8 3.3 10.6 12.5 10.6 20.4 0 5.3-2.2 8.7-5.6 8.7a8 8 0 0 1-3.9-1.2c-5.8-3.4-10.6-12.6-10.6-20.5 0-5.2 2.2-8.6 5.6-8.6Z" fill="#C3F559"/><path d="M135.5 103.2c0 3.6 2.2 7.7 4.9 9.3 2.6 1.5 4.8-.1 4.8-3.7s-2.2-7.7-4.8-9.2c-2.7-1.6-4.9 0-4.9 3.6Z" fill="#C3F559"/><path d="M144.8 124.7a8 8 0 0 0 4-1c3.3-2 5.1-6 5.1-11.2a2.3 2.3 0 1 0-4.7 0c0 3.4-1 6-2.7 7-1.6 1-3.6.3-5-.5-5.4-3.2-10-12-10-19.5 0-3.4 1-6 2.7-7 1.6-1 3.6-.2 5 .6a2.3 2.3 0 0 0 2.3-4c-3.4-2-6.9-2.3-9.7-.7-3.2 1.9-5 6-5 11.1 0 9.2 5.4 19.5 12.4 23.5 2 1.1 3.8 1.7 5.6 1.7Z" fill="#4D00FF"/><path d="M166.7 70.4s6.8 19.4 16 23c4.4 2 11.5-3.3 17.4.9 6.6 4.6 8.7 11 13.2 15 6 5.1 8.5 1.6 8.5 1.6v16.8L166.7 96V70.4Z" fill="url(#k)"/><path d="M166.7 83.5c7.6 3.3 11-17 15.8-9 5 8 8.5 30.4 16.4 35.3 7.8 4.8 11.3-8.5 14.2-10.2 2.9-1.7 8.7 3.8 8.7 3.8v24.3L166.7 96V83.5Z" fill="url(#l)"/><path d="M221.8 103.4S216 98 213 99.6c-3 1.7-6.4 15-14.2 10.2-8-4.9-11.5-27.2-16.4-35.3-4.9-8-8.2 12.3-15.8 9" stroke="#099F0F" stroke-linecap="round" stroke-linejoin="round" stroke-miterlimit="10" stroke-width="1.4"/><path d="M166.7 100.5V61m55 31.9v39.5m0-21.4s-2.3 3.5-8.4-1.7c-4.5-3.8-6.6-10.3-13.2-15-6-4-13 1.1-17.4-.7-9.2-3.7-16-23-16-23m39.6 13.3v39.6M182.1 70v39.5" stroke="#59A3F5" stroke-linecap="round" stroke-linejoin="round" stroke-miterlimit="10" stroke-width="1.4"/><path d="m212.3 91.8 3.5 2v-3l-3.5-2v3Zm-3 1.3 6.5 3.7v-1.2l-6.5-3.7v1.2Zm-16.7-7.7 3.5 2v-3l-3.5-2v3Z" fill="#59A3F5"/><path d="m189.6 86.7 6.5 3.7v-1.2l-6.5-3.7v1.2Z" fill="#34ACE0"/><path d="m173.2 64.7 3.5 2v-3l-3.5-2v3Zm-3 1.3 6.5 3.7v-1.2l-6.5-3.7V66Z" fill="#59A3F5"/><path d="m193.4 127.1 17 10.1v-3l-17-10v3Z" fill="#00FFA3"/><path d="m193.7 134.1 28 16.7v-3l-28-16.6v3Zm0 6.6 28 16.6v-3l-28-16.6v3Zm0 6.5 28 16.6v-3l-28-16.6v3Zm0 6.5 28 16.7v-3l-28-16.6v3Z" fill="#59A3F5"/><path d="m158.5 106.4 17 10v-2.9l-17-10v2.9Z" fill="#00FFA3"/><path d="M158.8 113.4 187 130v-3l-28-16.6v3Zm0 6.5 28.1 16.7v-3l-28-16.7v3Zm0 6.5 28.1 16.7v-3l-28-16.6v3Zm0 6.6 28.1 16.6v-3L159 130v3Z" fill="#59A3F5"/><path d="m128.5 44.5 17 10v-2.9l-17-10v2.9Z" fill="#9EFF62"/><path d="m128 50.6 28 16.6v-3l-28-16.6v3Zm0 6.5 28 16.7v-3l-28-16.6v3Zm0 6.6 28 16.6v-3l-28-16.6v3Zm0 6.5 28 16.6v-3l-28-16.6v3Z" fill="#fff"/><path d="M204.7 184.1v17.3l41.6 24" stroke="#099F0F" stroke-linecap="round" stroke-linejoin="round" stroke-miterlimit="10" stroke-width="2.5"/><path d="M193.3 191.2v17.2l51.7 29.9" stroke="#52F894" stroke-linecap="round" stroke-linejoin="round" stroke-miterlimit="10" stroke-width="2.5"/><path d="m143.8 186 1.2-.3 3.5-2.1a2.3 2.3 0 0 0-2.2-4l-3.6 2.1a2.3 2.3 0 0 0 1.1 4.3Z" fill="#2D527B"/><path d="M143.2 184.1v17.3l-41.6 24" stroke="#B18FFF" stroke-linecap="round" stroke-linejoin="round" stroke-miterlimit="10" stroke-width="2.5"/><path d="M155.3 193c.4 0 .7 0 1.1-.3l3.6-2a2.3 2.3 0 0 0-2.3-4l-3.6 2a2.3 2.3 0 0 0 1.2 4.3Z" fill="#2D527B"/><path d="M154.7 191.2v17.2L103 238.3" stroke="#59A3F5" stroke-linecap="round" stroke-linejoin="round" stroke-miterlimit="10" stroke-width="2.5"/><path d="m201.3 260.4 56.9-32.8a7.9 7.9 0 0 1 7.8 0l36 20.8 3-.6v3.8c0 1-.4 1.8-1.3 2.3L242 289.6a7.9 7.9 0 0 1-7.9 0l-37.7-21.8a2.6 2.6 0 0 1-1.3-2.2v-4l6.2-1.2Z" fill="#20AE65"/><path d="M303.7 250 242 285.7a7.9 7.9 0 0 1-7.9 0L196.4 264a2.6 2.6 0 0 1 0-4.6l61.8-35.7a7.9 7.9 0 0 1 7.8 0l37.7 21.8c1.8 1 1.8 3.5 0 4.5Z" fill="#D1FFE8"/><path d="m221.7 271.4 22.5 13 22.6-13-26.3-15.2-18.8 15.2Z" fill="url(#m)" opacity=".1"/><path d="m288.1 221.8-23.5 13.6-24.1-14L264 208l24.1 14Z" fill="#D1FFE8"/><path d="M288.1 221.8v28l-23.5 13.6v-28l23.5-13.6Z" fill="#20AE65"/><path d="m264.6 263.4-24.1-14v-28l24.1 14v28Z" fill="#5BEEA3"/><path d="M255.7 225.2c5.2 3 13.1 3.3 17.6.7 4.5-2.6 4-7.2-1.2-10.2-5.3-3-13.1-3.3-17.7-.7-4.5 2.6-4 7.2 1.3 10.2Z" fill="#B18FFF" opacity=".2"/><path d="M258.3 223.7c3.6 2 9 2.3 12 .5 3.1-1.8 2.7-5-.8-7-3.6-2-9-2.3-12-.5-3.2 1.8-2.8 5 .8 7Z" fill="#B18FFF" opacity=".5"/><path d="M251.4 219.2v-80l25 2.5v79.5c0 1.8-1 3.5-3 4.7a19.8 19.8 0 0 1-17.7-.7c-3-1.7-4.4-4-4.3-6Z" fill="url(#n)" opacity=".5"/><path d="M255.3 151.3c0-1.1.8-2.2 2.1-3 3.1-1.8 8.5-1.5 12 .5 2.1 1.2 3.1 2.8 3 4.2v68c.1 1.1-.6 2.3-2 3.2-3.2 1.8-8.5 1.5-12.1-.5-2-1.2-3-2.6-3-4v-68.4Z" fill="url(#o)" opacity=".5"/><path d="M259.3 180.7c0-.6.4-1.2 1.1-1.6 1.7-1 4.6-.8 6.5.3 1 .6 1.6 1.4 1.6 2.2V218c0 .7-.3 1.3-1.2 1.8-1.6 1-4.5.8-6.4-.3-1-.6-1.6-1.4-1.6-2.1v-36.7Z" fill="url(#p)" opacity=".5"/><path d="M258.3 186.6c3.6 2 9 2.3 12 .5 3.1-1.8 2.7-4.9-.8-7-3.6-2-9-2.2-12-.4-3.2 1.7-2.8 4.9.8 7Zm0 13c3.6 2.1 9 2.3 12 .6 3.1-1.8 2.7-5-.8-7-3.6-2-9-2.3-12-.5-3.2 1.8-2.8 5 .8 7Zm0 13c3.6 2 9 2.2 12 .4 3.1-1.8 2.7-4.9-.8-7-3.6-2-9-2.2-12-.5-3.2 1.8-2.8 5 .8 7Z" stroke="#B18FFF" stroke-miterlimit="10" stroke-width=".5" opacity=".5"/><path d="m55.7 241.6 33.9-19.7a7.9 7.9 0 0 1 7.9 0l36 20.8 3-.6v3.8c0 .9-.5 1.8-1.3 2.3l-38.8 22.5a7.9 7.9 0 0 1-7.9 0L50.8 249a2.6 2.6 0 0 1-1.3-2.3v-3.9l6.2-1.2Z" fill="#20AE65"/><path d="M135.1 244.3 96.4 267a7.9 7.9 0 0 1-7.9 0l-37.7-22a2.6 2.6 0 0 1 0-4.6L89.6 218a7.9 7.9 0 0 1 7.9 0l37.6 21.8c1.8 1 1.8 3.5 0 4.5Z" fill="#D1FFE8"/><path d="m81.7 263 13-7.5-24.2-14-13 7.5 24.2 14Z" fill="url(#q)" opacity=".1"/><path d="m272.7 268-8-4.6 23.4-13.6 8.1 4.6-23.5 13.6Z" fill="url(#r)" opacity=".1"/><path d="m81.5 253.8-8 4.4-7.1-4.1 3.7-2 11.4 1.7Z" fill="url(#s)" opacity=".1"/><path d="m118 214-23.4 13.5-24.1-14L93.9 200l24.2 14Z" fill="#D1FFE8"/><path d="M118 214v27.9l-23.4 13.6v-28l23.5-13.6Z" fill="#20AE65"/><path d="m94.6 255.5-24.1-14v-28l24.1 14v28Z" fill="#5BEEA3"/><path d="M85.7 217.3c5.2 3 13 3.3 17.6.7 4.5-2.6 4-7.2-1.3-10.2-5.2-3-13-3.3-17.6-.7-4.5 2.6-4 7.2 1.3 10.2Z" fill="#33D9B2" opacity=".2"/><path d="M88.3 215.8c3.5 2 9 2.3 12 .5 3.1-1.8 2.7-5-.8-7-3.6-2-9-2.3-12.1-.5-3 1.8-2.7 5 .9 7Z" fill="#33D9B2" opacity=".5"/><path d="M85.3 143.4c0-1.1.7-2.2 2-3 3.2-1.8 8.6-1.5 12.1.5 2.1 1.2 3.1 2.8 3 4.2V213c0 1.2-.6 2.4-2 3.3-3.2 1.8-8.6 1.5-12.1-.5-2-1.2-3-2.6-3-4v-68.4Z" fill="url(#t)" opacity=".5"/><path d="M81.4 211.3v-80l25 2.5v79.5c0 1.8-1 3.4-3 4.7a19.8 19.8 0 0 1-17.7-.7c-3-1.7-4.4-4-4.3-6Z" fill="url(#u)" opacity=".5"/><path d="M89.3 172.8c0-.6.4-1.2 1-1.6 1.7-1 4.6-.8 6.6.3 1 .6 1.6 1.4 1.5 2.2v36.4c0 .7-.3 1.3-1 1.8-1.7 1-4.6.8-6.5-.3-1-.6-1.6-1.4-1.6-2.1v-36.7Z" fill="url(#v)" opacity=".5"/><path d="M88.3 178.7c3.5 2 9 2.3 12 .5 3.1-1.8 2.7-4.9-.8-7-3.6-2-9-2.2-12.1-.4-3 1.7-2.7 4.9.9 7Zm0 13c3.5 2.1 9 2.3 12 .6 3.1-1.8 2.7-5-.8-7-3.6-2-9-2.3-12.1-.5-3 1.8-2.7 4.9.9 7Zm0 12.9c3.5 2 9 2.3 12 .5 3.1-1.8 2.7-5-.8-7a14 14 0 0 0-12.1-.5c-3 1.8-2.7 5 .9 7Z" stroke="#52F894" stroke-miterlimit="10" stroke-width=".5" opacity=".5"/><path d="M170.6 172.8V185L141 168v-12l29.5 17Z" fill="#2D527B"/><path d="m167.5 176-1.8-1.1v-1.1l1.8 1v1.2Zm-9.7-6.7v1l-1.8-1v-1.1l1.8 1Zm5.1 4-.8-.5v-2.5l.8.5v2.5Zm-2.8-5 .6 1-.7.6.7 1.4-.6.4-1.3-2.5 1.3-1Zm4.7 6.1-1-.5v-1.2l1 .6v1.1Zm-2.2 4.3-1.9-1v-1.2l1.9 1v1.2Zm5 3-.8-.6v-2.4l.8.5v2.4Zm-9-7.8.9.5v2.5l-.9-.5-1-.6v-1l1 .5v-1.4Zm6.3 2.6.6 1.2-.7.5.7 1.4-.6.4-1.3-2.5 1.3-1Zm-8.1-2.3v1.2l-1-.6v-1.1l1 .5Zm-2.7-6-1.9-1v-1.1l1.9 1v1.2Zm-9.7-6.6v1.1l-1.9-1v-1.2l1.9 1Zm5 4-.8-.5v-2.4l.9.5v2.4Zm-2.7-5 .6 1-.7.6.7 1.4-.6.4-1.3-2.5 1.3-1Zm4.6 6.1-.9-.5V165l1 .5v1.1Zm-2.2 4.3-1.8-1v-1.2l1.8 1v1.2Zm5.1 3-.8-.5V171l.8.5v2.4Zm-9-7.7.8.5v2.4l-.8-.5-1-.5V167l1 .6v-1.3Zm6.2 2.5.6 1.2-.7.5.7 1.4-.6.5-1.3-2.6 1.3-1Zm-8-2.3v1.2l-1-.6V166l1 .5Z" fill="#52F894"/><path d="M92 228.2v5.3l-3.8 2.2 3.7-7.5Z" fill="#20AE65"/><path d="M92 228.2 73.7 218l-3.7 7.5 18 10.2 3.8-7.5Z" fill="#D1FFE8"/><path d="M70.1 207.3s-1.8.8-2.2 2.2c-.4 1.4-.7 7.5-.4 8.1.3.7 3.4 2 3.4 2l-.8-12.3Z" fill="#CEDFED"/><path d="M78.8 199.6s.3 4 0 4.8c-.2.7-1.5 1-1.5 1l-.5-5 2-.8Z" fill="#FFAD91"/><path d="M69.5 249.6s-.5 3 0 3.7c.5.6 2.2 1.3 3.6.3s1.9-1.2 3.5-1.7a2.4 2.4 0 0 0 1.7-2.3c0-1-5-.6-5-.6l-3.8.6Z" fill="#2D527B"/><path d="M73.7 252s-.6 3 0 3.6c.5.6 2.2 1.3 3.6.3s1.9-1.2 3.4-1.7c1.2-.4 1.8-1.3 1.7-2.3 0-.9-5-.6-5-.6l-3.7.6Z" fill="#2D527B"/><path d="m79.2 240-.6 12.8s-1.4.9-2.8.6c-1.8-.4-2.1-1.5-2.1-1.5v-1s-.5.3-2 0a3.3 3.3 0 0 1-2.2-1.3l-.2-12.3 9.9 2.7Z" fill="#CEDFED"/><path d="m73 251-.3-12 .8.9.2 11h-.1l-.6.1Z" fill="#5BEEA3"/><path d="M70.1 207.3s-1.6.7-1.5 3.3c0 2.6 1.4 7.7 1.2 8.9 0 1.1-.9 3.6-1.2 6.7l-.7 10.4s1.6 2.3 5.6 3.3c4 1 6.1 0 6.1 0s.1-13.3-.3-15.3 1.7-4.8 1-8c-.7-3.3-1-6.5-1-6.5s-8.1-4-9.2-2.8Z" fill="#E5ECF2"/><path d="M77.9 200.8s1.3-.3 1.7-1.5c.4-1.3.3-3-.8-3.9a5.5 5.5 0 0 0-4-1c-1.3.3-5.5 2.2-5.8 5.2-.4 3 .7 5.4.4 8.1-.3 2.8-.3 3.8.3 5.6.7 1.9 2 2.3 2 2.3s2.3-.1 4-2.4c1.8-2.3 2.2-3.7 2.2-3.7l1.5.6-1-2.5c-.7-1.2-.5-6.4-.5-6.8Z" fill="#2D527B"/><path d="M79.4 210.1s-1.9-.2-2.2 2a54 54 0 0 0 0 10.5c.3.8 5.9 4.2 5.9 4.2l2.3-3-4.5-3.3s0-7.5-.2-8.6c-.2-1-.7-1.4-1.3-1.8Z" fill="#CEDFED"/><path d="M85.4 223.7s.9.7 1.4 1.6c.5.9.2 2.5-.2 2.5-.4.1-1.3.1-1.4-.2l-.2-.6h-1c-.7-.4-.6-.8-.6-.8l1.9-2.5Z" fill="#FFAD91"/><path d="m217.2 254.7 25.7 2.4v10.6c0 1.7-1 3.3-3 4.5-4.7 2.7-12.9 2.3-18.2-.8-3-1.7-4.5-3.9-4.4-6v-10.7Z" fill="#20AE65"/><path d="M238.5 251c5.4 3 6 7.7 1.3 10.4-4.6 2.7-12.8 2.4-18.1-.7-5.4-3.1-6-7.8-1.3-10.5 4.6-2.7 12.7-2.4 18.1.7Z" fill="#D1FFE8"/><path d="M248.2 266.1s-.1.8.4 1.8 1.5 1.2 2.5.7c1-.6 1.8-1.7 2.6-2 1-.2 4.6-2.3 4.4-3.6-.1-1.3-6-.3-7.5.7a7.9 7.9 0 0 0-2.4 2.4Z" fill="#2D527B"/><path d="M222.3 250s0 4 1 5.2c1 1.2 4.9 3.8 9 2.7l10.5-3 5.4 11.2h.2a3 3 0 0 0 3.5-2.5s-4.4-13.8-7-14.7c-2.5-.8-12.5 0-12.5 0l-10.1 1.1Z" fill="#2D527B"/><path d="m231.2 243 6-3.5 9.7 5.5-9.4-13.8.3-.2a1 1 0 0 1 1 0l9.6 5.4c.3.2.5.6.5 1v7.6c0 .3-.2.6-.5.8l-6.6 3.8c-.3.1-.6.1-.8 0l-10.2-5.9a.3.3 0 0 1-.2-.3v-.5h.6Z" fill="#20AE65"/><path d="m248.3 245.2-6.5 3.7c-.3.2-.6.2-.8 0l-10.2-5.8a.3.3 0 0 1 0-.5l6.5-3.8 11 6.4Z" fill="#D1FFE8"/><path d="M248.3 245.2v-7.5c0-.3-.2-.6-.4-.8l-10-5.7a.4.4 0 0 0-.6.4v7.2l11 6.4Z" fill="#2D527B"/><path d="M247.7 244.2V238c0-.3 0-.5-.3-.6l-9.1-5.3a.4.4 0 0 0-.6.3v6l10 5.8Z" fill="#20AE65"/><path d="m246.7 245-9.4-5.4-3.2 1.9 9.3 5.4 3.3-1.9Z" fill="#5BEEA3"/><path d="m239.6 245.4-2.7-1.6-1.6 1 2.7 1.5 1.6-.9Z" fill="#D1CCC0"/><path d="m246.4 236.8 1.3 2.6v4.8l-2.8-1.7-5-9.5 6.5 3.8Zm-8.7.2v-4.6c0-.2.2-.3.3-.4l5 9.4-4.3-2.4-1-2Z" fill="#F7F1E3" opacity=".1"/><path d="M233.9 240.3s1-1.1 2-1.2c1 0 2.6 1.9 2.6 3 0 1-.3 1-.6 1s-.5-.4-.5-.4-.4.1-.6.4c-.1.3-.3 1.2-1.6 1-1.4-.1-1.3-3.8-1.3-3.8Z" fill="#E69C83"/><path d="M233.9 240.3s.8 0 1.3 1.2c.4 1 0 2.6 0 2.6s-6 1.1-7.2.4c-1.2-.8-3-6.7-2.7-10.4.3-3.8 1.5-4.7 3-4.4 1.4.3 1.8.9 2 3 .1 2.2.1 6.4.5 7.1.4.7 3 .5 3 .5Z" fill="#D1CCC0"/><path d="M240 244.5s1-1 2-1.1c.8 0 2.5 1.8 2.5 2.9 0 1-.2 1-.6 1-.3.1-.5-.4-.5-.4s-.4.2-.5.5c-.2.3-.4 1.1-1.7 1-1.3-.2-1.3-3.9-1.3-3.9Z" fill="#E69C83"/><path d="M232.7 231.9s2.4 1.5 3.1 3c.7 1.3-1 7.7-.8 10.7.1 3 .8 4.4.1 5.7-.6 1.2-4.8 2.4-7.9 1.7-3-.7-5.2-2.8-5.2-3.7l.2-5.5c0-1.7-.3-9 .4-11.7.7-2.6 3.9-3 4.7-2.8a70 70 0 0 1 5.4 2.6Z" fill="#E5ECF2"/><path d="M234.5 221.8s.8 6.5 0 7.3c-.7 1-1.8 1.1-1.8 1.1v1.7s-1.1.6-3 0c-2-.6-2.5-1.4-2.5-1.4v-10.6l7.3 1.9Z" fill="#E69C83"/><path d="M234.5 221.8s.4-.5.6-1.4c.3-1 .1-3.5-.6-3.8-.6-.4-1.2 0-1.2 0s-.4-.8-1-.8c-.5 0-.8.4-.8.4s-.2-.6-.7-.6c-.6 0-.9.4-.9.4s-4.3.2-5.6 3.2c-1.3 3-.7 8 .6 9.5 1.4 1.5 3.6 2 5 1.6 1.3-.5 2.5-4 2.5-4l1-.3v-3.8l1.1-.4Z" fill="#2D527B"/><path d="M232.4 226.3v-2.6s-1.6.1-1.7 1.2c-.1 1 .4 2.4 1.2 2.6.5 0 .5-1.2.5-1.2Z" fill="#E69C83"/><path d="M240 244.5s.8.1 1.2 1.2c.4 1.1 0 2.7 0 2.7s-5.9 1-7.1.3c-1.2-.7-3.1-6.6-2.8-10.4.4-3.7 1.5-4.6 3-4.4 1.4.3 1.9 1 2 3 .1 2.2.1 6.5.5 7.1.4.7 3.1.5 3.1.5Z" fill="#CEDFED"/><defs><linearGradient id="a" x1="280.9" x2="254.1" y1="137.1" y2="153.2" gradientUnits="userSpaceOnUse"><stop stop-color="#437AB8"/><stop offset="1" stop-color="#437AB8" stop-opacity="0"/></linearGradient><linearGradient id="b" x1="259.8" x2="258.1" y1="174.3" y2="50.3" gradientUnits="userSpaceOnUse"><stop stop-color="#FF528E"/><stop offset="1" stop-color="#FF528E" stop-opacity="0"/></linearGradient><linearGradient id="c" x1="258.5" x2="258.5" y1="136.7" y2="58.5" gradientUnits="userSpaceOnUse"><stop stop-color="#FF528E"/><stop offset="1" stop-color="#FF528E" stop-opacity="0"/></linearGradient><linearGradient id="d" x1="258.5" x2="258.5" y1="126.6" y2="84.6" gradientUnits="userSpaceOnUse"><stop stop-color="#FF528E"/><stop offset="1" stop-color="#FF528E" stop-opacity="0"/></linearGradient><linearGradient id="e" x1="84.9" x2="47.5" y1="141.9" y2="120.3" gradientUnits="userSpaceOnUse"><stop stop-color="#437AB8"/><stop offset="1" stop-color="#437AB8" stop-opacity="0"/></linearGradient><linearGradient id="f" x1="98.8" x2="97.2" y1="173.8" y2="49.8" gradientUnits="userSpaceOnUse"><stop stop-color="#FFD562"/><stop offset="1" stop-color="#FFD562" stop-opacity="0"/></linearGradient><linearGradient id="g" x1="97.6" x2="97.6" y1="136.3" y2="58" gradientUnits="userSpaceOnUse"><stop stop-color="#FFD562"/><stop offset="1" stop-color="#FFD562" stop-opacity="0"/></linearGradient><linearGradient id="h" x1="97.6" x2="97.6" y1="126.1" y2="84.2" gradientUnits="userSpaceOnUse"><stop stop-color="#FFD562"/><stop offset="1" stop-color="#FFD562" stop-opacity="0"/></linearGradient><linearGradient id="i" x1="196" x2="226.6" y1="201.9" y2="220.3" gradientUnits="userSpaceOnUse"><stop stop-color="#437AB8"/><stop offset="1" stop-color="#437AB8" stop-opacity="0"/></linearGradient><linearGradient id="j" x1="214.4" x2="151.1" y1="220.1" y2="27.3" gradientUnits="userSpaceOnUse"><stop stop-color="#4FC198"/><stop offset=".1" stop-color="#4FC198"/><stop offset=".5" stop-color="#fff"/><stop offset=".8" stop-color="#fff"/><stop offset="1" stop-color="#fff"/></linearGradient><linearGradient id="k" x1="194.2" x2="205.3" y1="107.5" y2="88.4" gradientUnits="userSpaceOnUse"><stop stop-color="#59A3F5" stop-opacity="0"/><stop offset="1" stop-color="#59A3F5"/></linearGradient><linearGradient id="l" x1="194.2" x2="207.8" y1="117.2" y2="93.8" gradientUnits="userSpaceOnUse"><stop stop-color="#5297FF" stop-opacity="0"/><stop offset="1" stop-color="#52FF63"/></linearGradient><linearGradient id="m" x1="247.1" x2="213" y1="267.8" y2="288.2" gradientUnits="userSpaceOnUse"><stop stop-color="#437AB8"/><stop offset="1" stop-color="#437AB8" stop-opacity="0"/></linearGradient><linearGradient id="n" x1="265.1" x2="263.5" y1="274.1" y2="150.1" gradientUnits="userSpaceOnUse"><stop stop-color="#B18FFF"/><stop offset="1" stop-color="#B18FFF" stop-opacity="0"/></linearGradient><linearGradient id="o" x1="263.9" x2="263.9" y1="236.6" y2="158.3" gradientUnits="userSpaceOnUse"><stop stop-color="#B18FFF"/><stop offset="1" stop-color="#B18FFF" stop-opacity="0"/></linearGradient><linearGradient id="p" x1="263.9" x2="263.9" y1="226.4" y2="184.5" gradientUnits="userSpaceOnUse"><stop stop-color="#B18FFF"/><stop offset="1" stop-color="#B18FFF" stop-opacity="0"/></linearGradient><linearGradient id="q" x1="78.8" x2="53.7" y1="250.6" y2="265.6" gradientUnits="userSpaceOnUse"><stop stop-color="#437AB8"/><stop offset="1" stop-color="#437AB8" stop-opacity="0"/></linearGradient><linearGradient id="r" x1="278.3" x2="298.1" y1="257.6" y2="269.5" gradientUnits="userSpaceOnUse"><stop stop-color="#437AB8"/><stop offset="1" stop-color="#437AB8" stop-opacity="0"/></linearGradient><linearGradient id="s" x1="78" x2="62.9" y1="251.2" y2="261.4" gradientUnits="userSpaceOnUse"><stop stop-color="#437AB8"/><stop offset="1" stop-color="#437AB8" stop-opacity="0"/></linearGradient><linearGradient id="t" x1="93.9" x2="93.9" y1="228.7" y2="150.4" gradientUnits="userSpaceOnUse"><stop stop-color="#52F894"/><stop offset="1" stop-color="#52F894" stop-opacity="0"/></linearGradient><linearGradient id="u" x1="95.1" x2="93.4" y1="266.2" y2="142.2" gradientUnits="userSpaceOnUse"><stop stop-color="#52F894"/><stop offset="1" stop-color="#52F894" stop-opacity="0"/></linearGradient><linearGradient id="v" x1="93.9" x2="93.9" y1="218.5" y2="176.6" gradientUnits="userSpaceOnUse"><stop stop-color="#52F894"/><stop offset="1" stop-color="#52F894" stop-opacity="0"/></linearGradient></defs></svg>